<svg width="588" height="406" viewBox="0 0 588 406" fill="none" xmlns="http://www.w3.org/2000/svg">
<path d="M498.482 43.6165C545.738 20.4161 587.011 0.999692 587.011 0.999692M187.732 248.361C179.153 256.437 171.03 264.507 163.498 272.497M327.68 206.266C327.68 206.266 327.673 206.237 327.647 206.171C327.277 204.912 323.537 191.626 325.62 172.923C327.091 159.692 331.468 143.754 342.023 127.46L342.021 127.45C342.021 127.45 342.021 127.45 342.033 127.448L342.031 127.438L342.042 127.436C342.042 127.436 342.042 127.436 342.04 127.426M341.285 127.44L341.287 127.45L341.299 127.448M342.686 131.691C342.686 131.691 335.339 162.251 382.564 174.04M326.173 172.805C307.523 180.993 299.614 193.744 297.411 197.96M227.118 290.607C240.498 293.945 258.502 293.869 282.454 286.147M308.639 212.574C306.952 208.548 303.851 202.864 298.402 197.638C291.386 190.913 280.486 184.953 263.725 184.265C255.786 183.934 246.526 184.789 235.733 187.311C187.726 198.527 183.801 229.946 186.789 248.894C187.882 255.782 189.88 261.021 191.014 263.05C192.322 265.397 195.324 270.519 200.819 275.797M109.779 306.962C98.0752 323.636 91.9248 346.513 103.686 369.571C121.401 404.331 157.809 410.228 195.498 400.523C233.187 390.818 252.964 351.421 248.139 328.102C245.583 315.726 239.79 300.993 228.307 290.032C221.843 283.848 213.552 278.869 203.014 276.177C197.024 274.644 190.294 273.862 182.758 274.013C175.024 274.171 168.398 274.675 162.713 275.404M104.833 367.878C80.9891 391.6 49.9391 388.733 29.9677 375.185C24.2633 371.314 19.4496 366.561 15.9877 361.314C11.9458 355.189 9.57423 348.842 8.53684 342.568C5.53877 324.704 13.2878 307.492 23.5821 297.965C33.4739 288.805 51.2755 285.644 60.7178 284.576M15.7017 343.816C15.7017 343.816 3.4865 338.428 1.04917 346.542C-1.38817 354.655 9.84795 357.948 12.9007 365.9C15.9534 373.852 13.4821 384.633 18.9849 386.756C24.4856 388.87 32.1987 385.694 30.9002 374.916M475.602 54.3878C475.602 54.3878 447.984 67.4861 456.462 106.391C464.941 145.305 498.312 155.051 498.312 155.051C522.693 127.094 520.012 96.8397 515.435 72.2778C512.937 58.8194 504.933 49.204 497.339 44.5993M497.339 44.5993C496.351 43.9995 495.371 43.4889 494.42 43.063C489.284 40.7846 486.221 42.2008 482.734 44.0984C473.051 49.3646 480.287 55.886 492.021 51.8356C494.469 50.9965 497.395 48.1982 497.339 44.5993ZM497.339 44.5993C497.348 43.7229 497.225 42.7807 496.974 41.792C495.088 34.1612 485.655 23.4855 460.355 13.6906C418.404 -2.54714 366.616 2.43541 366.616 2.43541C366.616 2.43541 393.973 34.6085 418.349 53.8053M418.349 53.8053C435.505 50.3814 449.709 50.7661 455.374 51.2068C467.3 52.1373 469.479 62.1364 447.984 67.4861C441.02 69.2185 430.031 62.9955 418.349 53.8053ZM418.349 53.8053C399.345 57.5941 376.71 66.0625 358.035 84.2977C358.035 84.2977 402.131 90.433 433.612 75.1156C415.287 84.8202 382.062 101.408 370.709 108.394C361.624 113.98 351.188 120.644 339.825 128.174C339.827 128.184 339.827 128.184 339.827 128.184L339.816 128.186C339.805 128.188 339.805 128.188 339.805 128.188L339.807 128.198M284.516 167.654C277.346 172.911 270.093 178.324 262.844 183.865M326.06 142.406C326.06 142.406 303.024 162.071 266.498 172.182C229.973 182.293 183.702 181.619 183.702 181.619C183.702 181.619 182.763 161.8 227.364 130.096C271.964 98.3929 317.314 116.652 325.163 121.865C333.001 127.081 331.648 132.556 317.516 134.38C303.384 136.204 262.233 103.393 252.501 80.6548C241.911 55.9181 241.31 29.3068 241.31 29.3068C241.31 29.3068 284.523 45.3538 318.446 74.8344C352.369 104.315 338.108 124.18 338.108 124.18L338.094 124.172M264.723 106.631C264.723 106.631 234.134 96.8794 222.728 99.0696C222.728 99.0696 185.412 32.7044 81.1806 88.0124C81.1806 88.0124 102.633 117.424 148.532 116.834C194.43 116.243 211.743 98.5473 211.743 98.5473C211.743 98.5473 125.195 96.9633 117.777 88.3018M310.41 104.247C310.41 104.247 281.371 71.5596 276.675 67.306C273.727 64.6412 259.252 67.7159 269.658 80.0147C281.252 93.7143 302.926 88.3285 302.926 88.3285M298.65 133.581C298.65 133.581 228.147 145.057 214.479 162.133M244.941 129.884C244.941 129.884 273.981 130.316 287.274 142.574M388.354 71.127C388.354 71.127 405.027 74.2037 419.938 71.7026C434.849 69.2015 434.849 69.2015 434.849 69.2015M464.689 49.0212C464.689 49.0212 435.864 18.1255 409.233 19.2008M488.762 65.254C488.762 65.254 482.137 92.8719 487.657 113.251C493.178 133.631 478.754 130.458 475.918 117.506C473.083 104.553 491.225 95.767 491.225 95.767M474.807 66.7409C474.807 66.7409 489.936 71.5123 494.193 81.4356M362.664 205.732C362.664 205.732 368.665 172.39 417.039 164.055C458.651 156.892 480.065 198.458 473.316 217.013C469.298 228.072 456.991 254.771 403.946 257.553M132.183 81.3702C132.183 81.3702 160.021 83.8025 169.653 101.142M449.477 27.5202C449.477 27.5202 428.646 37.8059 411.89 30.4864M331.976 206.699C324.408 207.569 314.811 210.978 308.516 214.302C280.343 230.377 267.768 259.92 281.569 287.002C285.339 294.393 292.162 304.157 300.58 308.802C349.038 335.552 394.732 298.089 398.648 286.491C400.353 281.443 406.62 268.302 403.791 249.667C403.791 249.667 400.088 227.129 378.02 214.405C356.458 201.959 331.976 206.699 331.976 206.699ZM163.986 271.476C163.986 271.476 163.305 272.226 162.033 273.497C134.561 278.624 129.543 285.261 129.543 285.261C122.378 289.74 115.037 296.591 109.113 305.043C101.868 306.355 94.4145 306.231 87.1145 303.849C73.8032 299.508 64.918 292.383 59.0506 284.625C48.8363 271.134 47.383 260.053 48.4352 249.648C49.7895 236.217 62.1845 226.827 62.1845 226.827C79.5422 209.797 119.402 199.016 146.149 218.064C172.883 237.104 163.986 271.476 163.986 271.476ZM73.5618 252.347C77.24 250.104 76.944 233.233 87.266 236.43C97.588 239.626 98.4986 252.153 94.526 254.23C90.5534 256.308 82.1265 259.438 81.0244 256.75C79.9223 254.063 82.3 251.831 83.8689 253.105C85.447 254.368 88.5155 272.057 83.0891 274.627C77.6626 277.196 64.6244 266.331 68.5297 265.129C72.4351 263.928 73.1165 264.685 73.5372 266.616C73.9579 268.546 65.1963 277.303 59.1097 270.866C53.0231 264.428 58.7527 254.9 63.7812 255.298C68.8301 255.681 73.5618 252.347 73.5618 252.347ZM335.279 278.795C338.353 278.183 336.845 262.802 346.526 264.358C356.207 265.915 358.084 276.876 355.897 279.944C353.711 283.012 348.403 282.451 349.295 279.404C350.187 276.358 373.244 266.961 375.291 275C377.339 283.04 370.47 293.191 362.17 293.187C353.87 293.183 352.185 289.057 348.638 290.608C345.09 292.159 352.664 306.27 339.97 305.975C327.275 305.68 326.253 287.908 329.562 287.622C332.872 287.345 334.553 287.912 334.863 290.514C335.174 293.117 330.104 299.602 318.068 293.204C306.029 286.796 314.643 276.33 320.673 275.426C326.69 274.515 327.192 280.412 335.279 278.795ZM161.93 360.616C165.051 360.764 168.662 345.523 177.353 349.37C186.044 353.218 184.245 364.274 181.161 366.707C178.079 369.149 173.21 367.318 175.059 364.586C176.908 361.854 201.892 358.339 201.206 366.611C200.52 374.882 190.671 383.041 182.78 381.034C174.886 379.016 174.641 374.626 170.757 375.269C166.873 375.913 169.456 391.389 157.491 388.032C145.526 384.674 150.365 367.236 153.604 367.762C156.843 368.288 158.258 369.254 157.701 371.845C157.144 374.437 150.197 379.488 140.85 370.387C131.504 361.287 143.12 353.238 149.145 353.825C155.168 354.401 153.727 360.235 161.93 360.616ZM425.877 211.812C434.694 212.303 426.405 221.489 432.688 223.104C437.095 224.228 442.795 226.553 441.2 232.355C439.93 236.964 424.961 243.847 417.454 231.892C413.578 225.727 425.441 227.124 425.1 230.025C424.807 232.496 420.153 240.723 414.342 240.254C408.519 239.786 402.901 236.332 405.385 230.143C407.071 225.938 413.263 227.079 414.352 219.867C415.293 213.596 418.33 211.395 425.877 211.812ZM205.25 228.119C209.989 224.491 213.731 235.979 216.126 235.986C219.816 235.983 221.081 225.993 226.446 235.352C231.81 244.71 223.048 250.057 220.284 247.547C217.521 245.036 220.201 243.215 221.171 243.77C222.152 244.324 228.579 256.662 222.243 262.484C215.909 268.316 205.116 251.739 207.914 251.217C210.713 250.695 215.044 251.904 211.276 254.524C207.508 257.143 200.882 256.332 200.494 247.628C200.106 238.925 206.349 244.468 207.156 241.029C207.963 237.59 199.368 232.616 205.25 228.119Z" stroke="#F25C05" stroke-opacity="0.2" stroke-miterlimit="10"/>
</svg>
