<svg aria-hidden="true" style="position: absolute; width: 0; height: 0; overflow: hidden;" version="1.1" xmlns="http://www.w3.org/2000/svg" xmlns:xlink="http://www.w3.org/1999/xlink">
<defs>

<symbol id="icon-whatsapp" viewBox="0 0 24 28">
<path d="M15.391 15.219c0.266 0 2.812 1.328 2.922 1.516 0.031 0.078 0.031 0.172 0.031 0.234 0 0.391-0.125 0.828-0.266 1.188-0.359 0.875-1.813 1.437-2.703 1.437-0.75 0-2.297-0.656-2.969-0.969-2.234-1.016-3.625-2.75-4.969-4.734-0.594-0.875-1.125-1.953-1.109-3.031v-0.125c0.031-1.031 0.406-1.766 1.156-2.469 0.234-0.219 0.484-0.344 0.812-0.344 0.187 0 0.375 0.047 0.578 0.047 0.422 0 0.5 0.125 0.656 0.531 0.109 0.266 0.906 2.391 0.906 2.547 0 0.594-1.078 1.266-1.078 1.625 0 0.078 0.031 0.156 0.078 0.234 0.344 0.734 1 1.578 1.594 2.141 0.719 0.688 1.484 1.141 2.359 1.578 0.109 0.063 0.219 0.109 0.344 0.109 0.469 0 1.25-1.516 1.656-1.516zM12.219 23.5c5.406 0 9.812-4.406 9.812-9.812s-4.406-9.812-9.812-9.812-9.812 4.406-9.812 9.812c0 2.063 0.656 4.078 1.875 5.75l-1.234 3.641 3.781-1.203c1.594 1.047 3.484 1.625 5.391 1.625zM12.219 1.906c6.5 0 11.781 5.281 11.781 11.781s-5.281 11.781-11.781 11.781c-1.984 0-3.953-0.5-5.703-1.469l-6.516 2.094 2.125-6.328c-1.109-1.828-1.687-3.938-1.687-6.078 0-6.5 5.281-11.781 11.781-11.781z"></path>
</symbol>

<symbol id="icon-telegram" viewBox="0 0 28 28">
<path d="M18.578 20.422l2.297-10.828c0.203-0.953-0.344-1.328-0.969-1.094l-13.5 5.203c-0.922 0.359-0.906 0.875-0.156 1.109l3.453 1.078 8.016-5.047c0.375-0.25 0.719-0.109 0.438 0.141l-6.484 5.859-0.25 3.563c0.359 0 0.516-0.156 0.703-0.344l1.687-1.625 3.5 2.578c0.641 0.359 1.094 0.172 1.266-0.594zM28 14c0 7.734-6.266 14-14 14s-14-6.266-14-14 6.266-14 14-14 14 6.266 14 14z"></path>
</symbol>

<symbol id="icon-facebock" viewBox="0 0 32 32">
<path d="M29.538 13.538c0 3.739-1.515 7.123-3.965 9.573s-5.835 3.965-9.573 3.965-7.123-1.515-9.573-3.965c-2.45-2.45-3.965-5.835-3.965-9.573s1.515-7.123 3.965-9.573c2.45-2.45 5.835-3.965 9.573-3.965s7.123 1.515 9.573 3.965c2.45 2.45 3.965 5.835 3.965 9.573z"></path>
<path d="M18.050 9.428h1.124v-1.957c-0.194-0.027-0.861-0.087-1.637-0.087-1.62 0-2.73 1.019-2.73 2.892v1.724h-1.788v2.188h1.788v5.505h2.192v-5.504h1.715l0.272-2.188h-1.988v-1.507c0-0.632 0.171-1.065 1.052-1.065z"></path>
</symbol>

<symbol id="icon-insta" viewBox="0 0 32 32">
<path d="M32 16c0 4.418-1.791 8.418-4.686 11.314s-6.895 4.686-11.314 4.686-8.418-1.791-11.314-4.686c-2.895-2.895-4.686-6.895-4.686-11.314s1.791-8.418 4.686-11.314 6.895-4.686 11.314-4.686c4.418 0 8.418 1.791 11.314 4.686s4.686 6.895 4.686 11.314z"></path>
<path d="M23.258 13.004c-0.034-0.773-0.159-1.304-0.338-1.765-0.185-0.489-0.469-0.926-0.841-1.29-0.364-0.369-0.804-0.656-1.287-0.838-0.463-0.179-0.992-0.304-1.764-0.338-0.779-0.037-1.026-0.046-3.001-0.046s-2.222 0.009-2.998 0.043c-0.773 0.034-1.304 0.159-1.764 0.338-0.489 0.185-0.926 0.469-1.29 0.841-0.369 0.364-0.656 0.804-0.838 1.287-0.179 0.463-0.304 0.992-0.338 1.764-0.037 0.779-0.045 1.026-0.045 3.001s0.008 2.222 0.043 2.998c0.034 0.773 0.159 1.304 0.338 1.765 0.185 0.489 0.472 0.926 0.841 1.29 0.364 0.369 0.804 0.656 1.287 0.838 0.463 0.179 0.992 0.304 1.765 0.338 0.776 0.034 1.023 0.043 2.998 0.043s2.222-0.008 2.998-0.043c0.773-0.034 1.304-0.159 1.764-0.338 0.978-0.378 1.75-1.151 2.128-2.128 0.179-0.463 0.304-0.992 0.338-1.765 0.034-0.776 0.043-1.023 0.043-2.998s-0.003-2.222-0.037-2.998zM21.949 18.942c-0.031 0.71-0.151 1.094-0.25 1.35-0.244 0.634-0.747 1.137-1.381 1.381-0.256 0.099-0.642 0.219-1.35 0.25-0.767 0.034-0.997 0.043-2.938 0.043s-2.174-0.008-2.938-0.043c-0.71-0.031-1.094-0.15-1.35-0.25-0.315-0.116-0.602-0.301-0.835-0.543-0.242-0.236-0.426-0.52-0.543-0.835-0.099-0.256-0.219-0.642-0.25-1.35-0.034-0.767-0.043-0.997-0.043-2.938s0.008-2.174 0.043-2.938c0.031-0.71 0.151-1.094 0.25-1.35 0.117-0.315 0.301-0.602 0.546-0.835 0.236-0.242 0.52-0.426 0.835-0.543 0.256-0.099 0.642-0.219 1.35-0.25 0.767-0.034 0.997-0.043 2.938-0.043 1.944 0 2.174 0.008 2.938 0.043 0.71 0.031 1.094 0.151 1.35 0.25 0.315 0.116 0.602 0.301 0.835 0.543 0.241 0.236 0.426 0.52 0.543 0.835 0.099 0.256 0.219 0.642 0.25 1.35 0.034 0.767 0.043 0.997 0.043 2.938s-0.009 2.168-0.043 2.935z"></path>
<path d="M16.027 12.265c-2.063 0-3.736 1.674-3.736 3.736s1.674 3.736 3.736 3.736c2.063 0 3.737-1.674 3.737-3.736s-1.674-3.736-3.737-3.736zM16.027 18.425c-1.338 0-2.424-1.085-2.424-2.424s1.086-2.424 2.424-2.424c1.338 0 2.424 1.085 2.424 2.424s-1.085 2.424-2.424 2.424z"></path>
<path d="M20.784 12.117c0 0.482-0.391 0.872-0.872 0.872s-0.872-0.391-0.872-0.872c0-0.482 0.391-0.872 0.872-0.872s0.872 0.39 0.872 0.872z"></path>
</symbol>

<symbol id="icon-twiter" viewBox="0 0 32 32">
<path d="M32 16c0 4.418-1.791 8.418-4.686 11.314s-6.895 4.686-11.314 4.686-8.418-1.791-11.314-4.686c-2.895-2.895-4.686-6.895-4.686-11.314s1.791-8.418 4.686-11.314 6.895-4.686 11.314-4.686c4.418 0 8.418 1.791 11.314 4.686s4.686 6.895 4.686 11.314z"></path>
<path d="M23.273 11.49c-0.541 0.237-1.117 0.394-1.718 0.471 0.618-0.369 1.090-0.949 1.312-1.648-0.576 0.344-1.213 0.586-1.891 0.722-0.547-0.583-1.327-0.944-2.178-0.944-1.651 0-2.98 1.34-2.98 2.983 0 0.236 0.020 0.464 0.069 0.68-2.479-0.121-4.673-1.309-6.146-3.119-0.257 0.446-0.408 0.957-0.408 1.507 0 1.033 0.532 1.948 1.325 2.478-0.479-0.009-0.949-0.148-1.347-0.367 0 0.009 0 0.021 0 0.033 0 1.449 1.034 2.653 2.389 2.93-0.243 0.066-0.507 0.098-0.782 0.098-0.191 0-0.384-0.011-0.565-0.051 0.386 1.181 1.483 2.049 2.786 2.077-1.015 0.794-2.303 1.272-3.697 1.272-0.245 0-0.479-0.011-0.714-0.041 1.321 0.852 2.886 1.338 4.575 1.338 5.487 0 8.487-4.545 8.487-8.485 0-0.132-0.005-0.259-0.011-0.385 0.592-0.42 1.089-0.944 1.495-1.548z"></path>
</symbol>

<symbol id="icon-cearrot-icon" viewBox="0 0 33 32">
<path d="M23.206 0.298l-1.371 2.019c0 0 0.747 0.582 1.104 1.41 0.31 0.728 0.534 1.581-0.647 3.009l-1.067 1.068c-3.59-3.057-7.239-3.201-7.239-3.201h-0.685l-0.382 0.61c0 0-3.109 5.286-6.095 10.743-1.493 2.728-2.971 5.505-3.997 7.696-0.516 1.095-0.92 2.048-1.182 2.818-0.128 0.385-0.219 0.709-0.266 1.067-0.049 0.357-0.182 0.847 0.418 1.448 0.601 0.6 1.091 0.466 1.448 0.418s0.681-0.138 1.067-0.266c0.772-0.262 1.724-0.667 2.82-1.182 2.187-1.028 4.964-2.503 7.693-3.997 5.453-2.992 10.743-6.095 10.743-6.095l0.61-0.382v-0.724c0 0-0.162-3.605-3.2-7.2l0.418-0.457c0.105-0.105 0.2-0.177 0.305-0.267l0.305-0.267c1.438-1.104 2.8-1.061 4.001-0.761 0.833 0.21 1.62 0.572 2.323 1.065l1.524-1.904c0 0-1.353-1.042-3.277-1.524-0.425-0.1-0.858-0.164-1.295-0.19l2.476-2.477-1.753-1.752-2.551 2.553c-0.062-0.288-0.151-0.568-0.267-0.839-0.686-1.599-1.981-2.438-1.981-2.438v-0.001zM14.596 7.193c0.801 0.077 3.091 0.41 5.83 3.162 2.743 2.762 3.081 5.035 3.161 5.828-0.2 0.119-1.242 0.748-2.057 1.219-0.432-0.958-0.969-1.865-1.601-2.704l-1.942 1.486c0.857 1.142 1.209 1.929 1.409 2.438-1.909 1.082-3.827 2.148-5.753 3.2-0.118 0.061-0.223 0.128-0.343 0.19-0.224-0.667-0.59-1.471-1.257-2.4l-1.981 1.409c0.6 0.839 0.895 1.529 1.029 1.981 0.023 0.077 0.023 0.095 0.037 0.152-1.822 0.976-3.584 1.914-5.027 2.59-0.752 0.354-1.286 0.549-1.829 0.762 0.215-0.542 0.41-1.076 0.762-1.829 0.985-2.099 2.443-4.837 3.923-7.542 0.714-1.304 1.258-2.281 1.905-3.429 0.39 0.343 0.895 0.805 1.448 1.524l1.904-1.486c-0.618-0.821-1.335-1.562-2.133-2.209 1.276-2.238 2.295-3.967 2.515-4.343h-0.001z"></path>
</symbol>

<symbol id="icon-fish-icon" viewBox="0 0 40 32">
<path d="M11.537 0.133l0.848 2.071c0.529 1.288 1.247 4.506 1.081 6.024-2.053 1.265-3.311 2.5-4.283 3.53-1.187-0.959-3.534-2.589-7.435-2.589h-1.506v1.506c0 2.882 1.041 5.224 1.413 6.024-0.376 0.794-1.413 3.052-1.413 6.024v1.506h1.506c3.87 0 6.246-1.635 7.436-2.589 1.781 1.836 4.322 3.771 7.529 5.224-0.142 0.935-0.253 2.241 0.14 3.765l0.283 1.129h1.176c1.858 0 3.459-0.923 4.753-1.741 1.059-0.672 1.571-1.141 1.836-1.366 5.989-0.211 9.812-3.441 11.859-6.635 2.117-3.299 2.635-6.588 2.635-6.588l0.047-0.376-0.14-0.376c0 0-3.449-9.47-12.8-9.93-0.994-1.205-2.384-2.205-4.329-3.012-2.301-0.952-5.195-1.599-8.377-1.599h-2.259zM15.913 3.333c1.9 0.211 3.677 0.595 5.082 1.176 1.925 0.795 3.265 1.935 3.576 2.447l0.425 0.706h0.846c7.523 0 10.229 7.123 10.448 7.718-0.105 0.553-0.542 2.653-2.071 5.036-1.748 2.723-4.578 5.317-9.883 5.317h-0.565l-0.423 0.376c0 0-0.795 0.678-1.882 1.364-0.572 0.36-1.059 0.425-1.647 0.66 0.060-0.688 0-1.694 0-1.694l0.33-1.318-1.224-0.425c-3.729-1.423-6.9-4.105-8.517-5.975l-1.036-1.224-1.129 1.129c0 0-2.006 1.407-4.611 2.071 0.388-1.765 0.988-3.34 0.988-3.34l0.33-0.66-0.33-0.66c0 0-0.652-1.729-1.035-3.576 2.775 0.613 4.658 2.307 4.658 2.307l1.129 1.129 1.036-1.224c1.348-1.522 4.977-5.317 10.306-6.024l-0.425-2.965c-1.441 0.19-2.699 0.607-3.905 1.084-0.077-1.265-0.142-2.354-0.471-3.436zM29.607 13.686c-0.599 0-1.174 0.238-1.597 0.662s-0.662 0.998-0.662 1.597c0 0.599 0.238 1.174 0.662 1.597s0.998 0.662 1.597 0.662 1.174-0.238 1.597-0.662c0.424-0.424 0.662-0.998 0.662-1.597s-0.238-1.174-0.662-1.597c-0.424-0.424-0.998-0.662-1.597-0.662z"></path>
</symbol>

<symbol id="icon-limon-icon" viewBox="0 0 32 32">
<path d="M12.089 0.117c-3.407 0-6.438 1.898-8.536 4.784-2.098 2.887-3.34 6.783-3.34 11.052 0 4.268 1.242 8.166 3.34 11.052 2.098 2.887 5.129 4.784 8.536 4.784 10.86 0 16.649-6.211 18.063-12.742 0.992-0.718 1.731-1.779 1.731-3.093s-0.738-2.375-1.733-3.093c-1.487-6.696-8.411-12.742-18.061-12.742zM12.089 2.756c2.423 0 4.671 1.341 6.392 3.712 1.721 2.369 2.845 5.736 2.845 9.484s-1.124 7.113-2.845 9.485c-1.722 2.369-3.969 3.711-6.392 3.711s-4.671-1.341-6.392-3.712c-1.721-2.369-2.845-5.736-2.845-9.484s1.124-7.113 2.845-9.485c1.722-2.37 3.969-3.711 6.392-3.711zM20.501 4.776c4.012 2.125 6.587 5.619 7.217 9.031l0.123 0.66 0.62 0.289c0.458 0.211 0.782 0.655 0.782 1.196s-0.325 0.984-0.784 1.196l-0.618 0.289-0.124 0.66c-0.702 3.82-3.006 7.566-7.63 9.567 0.181-0.216 0.367-0.428 0.537-0.66 2.098-2.887 3.34-6.783 3.34-11.052 0-4.268-1.242-8.166-3.34-11.052-0.037-0.046-0.088-0.078-0.124-0.124zM12.089 5.395c-0.944 0-1.83 0.34-2.639 0.908l2.68 6.308 2.722-6.268c-0.837-0.611-1.784-0.947-2.763-0.947zM7.47 8.405c-1.036 1.623-1.747 3.8-1.938 6.227h4.578l-2.639-6.227zM16.791 8.529l-2.683 6.103h4.537c-0.185-2.371-0.856-4.489-1.857-6.103h0.003zM5.531 17.271c0.185 2.371 0.856 4.489 1.855 6.103l2.684-6.103h-4.539zM14.067 17.271l2.639 6.227c1.036-1.623 1.747-3.8 1.938-6.227h-4.578zM12.047 19.292l-2.722 6.268c0.835 0.614 1.784 0.949 2.763 0.949 0.944 0 1.83-0.34 2.639-0.908l-2.68-6.309z"></path>
</symbol>

<symbol id="icon-loupe-icon" viewBox="0 0 31 32">
<path d="M13.528 0.64c-7.459 0-13.528 6.069-13.528 13.528s6.069 13.528 13.528 13.528c7.46 0 13.528-6.069 13.528-13.528s-6.069-13.528-13.528-13.528zM13.528 25.199c-6.082 0-11.031-4.948-11.031-11.031s4.949-11.031 11.031-11.031c6.082 0 11.031 4.948 11.031 11.031s-4.948 11.031-11.031 11.031z"></path>
<path d="M30.354 29.228l-7.16-7.16c-0.488-0.488-1.278-0.488-1.766 0s-0.488 1.278 0 1.766l7.16 7.16c0.244 0.244 0.563 0.366 0.883 0.366s0.639-0.122 0.883-0.366c0.488-0.488 0.488-1.278 0-1.766z"></path>
</symbol>

<symbol id="icon-shopping-cart-icon" viewBox="0 0 31 32">
<path d="M9.977 20.537h0.001c0.001 0 0.002-0 0.004-0h16.449c0.405 0 0.761-0.269 0.872-0.658l3.629-12.702c0.078-0.274 0.023-0.568-0.148-0.795s-0.44-0.361-0.724-0.361h-22.175l-0.649-2.919c-0.092-0.415-0.46-0.71-0.886-0.71h-5.444c-0.501 0-0.907 0.406-0.907 0.907s0.406 0.907 0.907 0.907h4.716c0.115 0.517 3.104 13.967 3.276 14.741-0.964 0.419-1.641 1.38-1.641 2.497 0 1.501 1.221 2.722 2.722 2.722h16.452c0.501 0 0.907-0.406 0.907-0.907s-0.406-0.907-0.907-0.907h-16.452c-0.5 0-0.907-0.407-0.907-0.907s0.406-0.906 0.905-0.907zM28.858 7.835l-3.111 10.887h-15.039l-2.419-10.887h20.57z"></path>
<path d="M9.073 26.887c0 1.501 1.221 2.722 2.722 2.722s2.722-1.221 2.722-2.722c0-1.501-1.221-2.722-2.722-2.722s-2.722 1.221-2.722 2.722zM11.794 25.98c0.5 0 0.907 0.407 0.907 0.907s-0.407 0.907-0.907 0.907c-0.5 0-0.907-0.407-0.907-0.907s0.407-0.907 0.907-0.907z"></path>
<path d="M21.895 26.887c0 1.501 1.221 2.722 2.722 2.722s2.722-1.221 2.722-2.722c0-1.501-1.221-2.722-2.722-2.722s-2.722 1.221-2.722 2.722zM24.617 25.98c0.5 0 0.907 0.407 0.907 0.907s-0.407 0.907-0.907 0.907c-0.5 0-0.907-0.407-0.907-0.907s0.407-0.907 0.907-0.907z"></path>
</symbol>

<symbol id="icon-up" viewBox="0 0 10 7">
<path d="M1 5.5L5 1.5L9 5.5" stroke="white" stroke-width="1.5"/>
</symbol>

<symbol width="30" height="27" viewBox="0 0 30 27" fill="none" xmlns="http://www.w3.org/2000/svg">
<path d="M9.66568 17.8948H9.66705C9.6682 17.8948 9.66934 17.8945 9.67049 17.8945H25.6055C25.9978 17.8945 26.3427 17.6343 26.4505 17.2571L29.9661 4.95241C30.0419 4.68713 29.9888 4.40195 29.8228 4.18176C29.6567 3.96158 29.3969 3.83203 29.1211 3.83203H7.6387L7.01042 1.00465C6.92093 0.602509 6.56433 0.316406 6.15234 0.316406H0.878906C0.393448 0.316406 0 0.709854 0 1.19531C0 1.68077 0.393448 2.07422 0.878906 2.07422H5.44739C5.55862 2.57524 8.45398 15.6046 8.62061 16.3542C7.68654 16.7602 7.03125 17.6915 7.03125 18.7734C7.03125 20.2273 8.21411 21.4102 9.66797 21.4102H25.6055C26.0909 21.4102 26.4844 21.0167 26.4844 20.5313C26.4844 20.0458 26.0909 19.6523 25.6055 19.6523H9.66797C9.18343 19.6523 8.78906 19.258 8.78906 18.7734C8.78906 18.2896 9.18205 17.8959 9.66568 17.8948V17.8948ZM27.9559 5.58984L24.9424 16.1367H10.3729L8.02917 5.58984H27.9559Z" fill="black"/>
<path d="M8.78906 24.0469C8.78906 25.5007 9.97192 26.6836 11.4258 26.6836C12.8796 26.6836 14.0625 25.5007 14.0625 24.0469C14.0625 22.593 12.8796 21.4102 11.4258 21.4102C9.97192 21.4102 8.78906 22.593 8.78906 24.0469ZM11.4258 23.168C11.9103 23.168 12.3047 23.5623 12.3047 24.0469C12.3047 24.5314 11.9103 24.9258 11.4258 24.9258C10.9412 24.9258 10.5469 24.5314 10.5469 24.0469C10.5469 23.5623 10.9412 23.168 11.4258 23.168Z" fill="black"/>
<path d="M21.2109 24.0469C21.2109 25.5007 22.3938 26.6836 23.8477 26.6836C25.3015 26.6836 26.4844 25.5007 26.4844 24.0469C26.4844 22.593 25.3015 21.4102 23.8477 21.4102C22.3938 21.4102 21.2109 22.593 21.2109 24.0469ZM23.8477 23.168C24.3322 23.168 24.7266 23.5623 24.7266 24.0469C24.7266 24.5314 24.3322 24.9258 23.8477 24.9258C23.3631 24.9258 22.9688 24.5314 22.9688 24.0469C22.9688 23.5623 23.3631 23.168 23.8477 23.168Z" fill="black"/>
</symbol>


<symbol id="icon-down" viewBox="0 0 32 32">
<path d="M31.68 21.932l-14.943-14.942c-0.213-0.214-0.459-0.321-0.737-0.321s-0.524 0.107-0.738 0.321l-14.942 14.942c-0.214 0.214-0.321 0.46-0.321 0.738s0.107 0.524 0.321 0.737l1.603 1.603c0.214 0.214 0.46 0.321 0.738 0.321s0.524-0.107 0.738-0.321l12.601-12.601 12.602 12.602c0.214 0.214 0.46 0.32 0.737 0.32s0.524-0.107 0.738-0.32l1.603-1.603c0.214-0.214 0.32-0.46 0.32-0.737s-0.106-0.524-0.32-0.738z"></path>
</symbol>

<symbol id="icon-google-plus" viewBox="0 0 32 32">
<path d="M10.181 14.294v3.494h5.775c-0.231 1.5-1.744 4.394-5.775 4.394-3.475 0-6.313-2.881-6.313-6.431s2.838-6.431 6.313-6.431c1.981 0 3.3 0.844 4.056 1.569l2.762-2.662c-1.775-1.656-4.075-2.662-6.819-2.662-5.631 0.006-10.181 4.556-10.181 10.188s4.55 10.181 10.181 10.181c5.875 0 9.775-4.131 9.775-9.95 0-0.669-0.075-1.181-0.163-1.688h-9.613z"></path>
<path d="M32 14h-3v-3h-3v3h-3v3h3v3h3v-3h3z"></path>
</symbol>

<symbol id="icon-facebook" viewBox="0 0 32 32">
<path d="M19 6h5v-6h-5c-3.86 0-7 3.14-7 7v3h-4v6h4v16h6v-16h5l1-6h-6v-3c0-0.542 0.458-1 1-1z"></path>
</symbol>

<symbol id="icon-instagram" viewBox="0 0 32 32">
<path d="M16 2.881c4.275 0 4.781 0.019 6.462 0.094 1.563 0.069 2.406 0.331 2.969 0.55 0.744 0.288 1.281 0.638 1.837 1.194 0.563 0.563 0.906 1.094 1.2 1.838 0.219 0.563 0.481 1.412 0.55 2.969 0.075 1.688 0.094 2.194 0.094 6.463s-0.019 4.781-0.094 6.463c-0.069 1.563-0.331 2.406-0.55 2.969-0.288 0.744-0.637 1.281-1.194 1.837-0.563 0.563-1.094 0.906-1.837 1.2-0.563 0.219-1.413 0.481-2.969 0.55-1.688 0.075-2.194 0.094-6.463 0.094s-4.781-0.019-6.463-0.094c-1.563-0.069-2.406-0.331-2.969-0.55-0.744-0.288-1.281-0.637-1.838-1.194-0.563-0.563-0.906-1.094-1.2-1.837-0.219-0.563-0.481-1.413-0.55-2.969-0.075-1.688-0.094-2.194-0.094-6.463s0.019-4.781 0.094-6.463c0.069-1.563 0.331-2.406 0.55-2.969 0.288-0.744 0.638-1.281 1.194-1.838 0.563-0.563 1.094-0.906 1.838-1.2 0.563-0.219 1.412-0.481 2.969-0.55 1.681-0.075 2.188-0.094 6.463-0.094zM16 0c-4.344 0-4.887 0.019-6.594 0.094-1.7 0.075-2.869 0.35-3.881 0.744-1.056 0.412-1.95 0.956-2.837 1.85-0.894 0.888-1.438 1.781-1.85 2.831-0.394 1.019-0.669 2.181-0.744 3.881-0.075 1.713-0.094 2.256-0.094 6.6s0.019 4.887 0.094 6.594c0.075 1.7 0.35 2.869 0.744 3.881 0.413 1.056 0.956 1.95 1.85 2.837 0.887 0.887 1.781 1.438 2.831 1.844 1.019 0.394 2.181 0.669 3.881 0.744 1.706 0.075 2.25 0.094 6.594 0.094s4.888-0.019 6.594-0.094c1.7-0.075 2.869-0.35 3.881-0.744 1.050-0.406 1.944-0.956 2.831-1.844s1.438-1.781 1.844-2.831c0.394-1.019 0.669-2.181 0.744-3.881 0.075-1.706 0.094-2.25 0.094-6.594s-0.019-4.887-0.094-6.594c-0.075-1.7-0.35-2.869-0.744-3.881-0.394-1.063-0.938-1.956-1.831-2.844-0.887-0.887-1.781-1.438-2.831-1.844-1.019-0.394-2.181-0.669-3.881-0.744-1.712-0.081-2.256-0.1-6.6-0.1v0z"></path>
<path d="M16 7.781c-4.537 0-8.219 3.681-8.219 8.219s3.681 8.219 8.219 8.219 8.219-3.681 8.219-8.219c0-4.537-3.681-8.219-8.219-8.219zM16 21.331c-2.944 0-5.331-2.387-5.331-5.331s2.387-5.331 5.331-5.331c2.944 0 5.331 2.387 5.331 5.331s-2.387 5.331-5.331 5.331z"></path>
<path d="M26.462 7.456c0 1.060-0.859 1.919-1.919 1.919s-1.919-0.859-1.919-1.919c0-1.060 0.859-1.919 1.919-1.919s1.919 0.859 1.919 1.919z"></path>
</symbol>

<symbol id="icon-twitter" viewBox="0 0 32 32">
<path d="M32 7.075c-1.175 0.525-2.444 0.875-3.769 1.031 1.356-0.813 2.394-2.1 2.887-3.631-1.269 0.75-2.675 1.3-4.169 1.594-1.2-1.275-2.906-2.069-4.794-2.069-3.625 0-6.563 2.938-6.563 6.563 0 0.512 0.056 1.012 0.169 1.494-5.456-0.275-10.294-2.888-13.531-6.862-0.563 0.969-0.887 2.1-0.887 3.3 0 2.275 1.156 4.287 2.919 5.463-1.075-0.031-2.087-0.331-2.975-0.819 0 0.025 0 0.056 0 0.081 0 3.181 2.263 5.838 5.269 6.437-0.55 0.15-1.131 0.231-1.731 0.231-0.425 0-0.831-0.044-1.237-0.119 0.838 2.606 3.263 4.506 6.131 4.563-2.25 1.762-5.075 2.813-8.156 2.813-0.531 0-1.050-0.031-1.569-0.094 2.913 1.869 6.362 2.95 10.069 2.95 12.075 0 18.681-10.006 18.681-18.681 0-0.287-0.006-0.569-0.019-0.85 1.281-0.919 2.394-2.075 3.275-3.394z"></path>
</symbol>

<symbol id="icon-youtube" viewBox="0 0 32 32">
<path d="M31.681 9.6c0 0-0.313-2.206-1.275-3.175-1.219-1.275-2.581-1.281-3.206-1.356-4.475-0.325-11.194-0.325-11.194-0.325h-0.012c0 0-6.719 0-11.194 0.325-0.625 0.075-1.987 0.081-3.206 1.356-0.963 0.969-1.269 3.175-1.269 3.175s-0.319 2.588-0.319 5.181v2.425c0 2.587 0.319 5.181 0.319 5.181s0.313 2.206 1.269 3.175c1.219 1.275 2.819 1.231 3.531 1.369 2.563 0.244 10.881 0.319 10.881 0.319s6.725-0.012 11.2-0.331c0.625-0.075 1.988-0.081 3.206-1.356 0.962-0.969 1.275-3.175 1.275-3.175s0.319-2.587 0.319-5.181v-2.425c-0.006-2.588-0.325-5.181-0.325-5.181zM12.694 20.15v-8.994l8.644 4.513-8.644 4.481z"></path>
</symbol>

<symbol id="icon-steam" viewBox="0 0 32 32">
<path d="M22 9c0-1.657 1.343-3 3-3s3 1.343 3 3c0 1.657-1.343 3-3 3s-3-1.343-3-3zM29.95 4.050c-2.734-2.734-7.166-2.734-9.9 0-1.112 1.112-1.771 2.505-1.979 3.95v0l-6.397 9.695c-0.86 0.044-1.712 0.263-2.499 0.657l-4.934-3.857c-1.142-0.893-2.792-0.691-3.685 0.451s-0.691 2.792 0.452 3.685l4.873 3.809c-0.53 2.087 0.021 4.392 1.654 6.025 2.466 2.466 6.464 2.466 8.929 0 1.515-1.515 2.098-3.607 1.752-5.568l7.783-6.968c1.445-0.207 2.838-0.867 3.95-1.979 2.734-2.734 2.734-7.166 0-9.899zM12 28.209c-2.325 0-4.209-1.884-4.209-4.209 0-0.022 0.001-0.044 0.002-0.066l2.091 1.634c0.48 0.375 1.049 0.557 1.615 0.557 0.78 0 1.552-0.346 2.070-1.009 0.893-1.142 0.691-2.792-0.451-3.685l-1.984-1.551c0.28-0.059 0.57-0.090 0.868-0.090 2.325 0 4.209 1.884 4.209 4.209s-1.885 4.209-4.209 4.209zM25 14c-2.761 0-5-2.239-5-5s2.239-5 5-5 5 2.239 5 5-2.239 5-5 5z"></path>
</symbol>

</defs>
</svg>
